<svg width="32" height="35" viewBox="0 0 32 35" fill="none" xmlns="http://www.w3.org/2000/svg">
<path d="M18 5.57858H8C4.96243 5.57858 2.5 8.04102 2.5 11.0786V27.0786C2.5 30.1161 4.96243 32.5786 8 32.5786H24C27.0376 32.5786 29.5 30.1161 29.5 27.0786V14.0786H31V27.0786L30.9912 27.4389C30.8097 31.0181 27.9395 33.8883 24.3604 34.0698L24 34.0786H8L7.63965 34.0698C4.06046 33.8883 1.19028 31.0181 1.00879 27.4389L1 27.0786V11.0786C1 7.33344 3.94111 4.27491 7.63965 4.08737L8 4.07858H18V5.57858Z" fill="black"/>
<path d="M7.24 26.0786L12.58 12.0786H14.64L19.96 26.0786H18.1L16.62 22.2986H10.52L9.04 26.0786H7.24ZM11.04 20.7186H16.1L13.56 13.9786L11.04 20.7186Z" fill="black"/>
<path d="M29.6186 5.17671C29.6791 5.17694 29.738 5.19582 29.7869 5.2307C29.8359 5.26557 29.8725 5.31467 29.8916 5.37109L30.1328 6.07567C30.2052 6.29262 30.3273 6.4903 30.4897 6.65341C30.6522 6.81653 30.8506 6.94071 31.0697 7.01635L31.7867 7.25243C31.8399 7.2737 31.8854 7.31006 31.9175 7.35687C31.9495 7.40368 31.9667 7.45882 31.9667 7.51526C31.9667 7.57169 31.9497 7.62686 31.9177 7.67373C31.8857 7.72059 31.8402 7.75703 31.7871 7.77839L31.0704 8.0262C30.8475 8.09946 30.6449 8.22275 30.4788 8.3863C30.3127 8.54985 30.1877 8.74917 30.1135 8.96848L29.8732 9.67347C29.8516 9.72574 29.8146 9.77049 29.767 9.80201C29.7194 9.83353 29.6633 9.85039 29.6059 9.85044C29.5485 9.85049 29.4924 9.83372 29.4447 9.80228C29.397 9.77085 29.36 9.72616 29.3383 9.67392L29.097 8.96934C29.0226 8.75016 28.8972 8.55105 28.7309 8.38778C28.5645 8.22451 28.3618 8.10156 28.1388 8.02868L27.4217 7.7926C27.3686 7.77133 27.3231 7.73497 27.291 7.68816C27.259 7.64135 27.2418 7.58621 27.2418 7.52977C27.2417 7.47334 27.2588 7.41817 27.2908 7.3713C27.3228 7.32444 27.3682 7.288 27.4214 7.26664L28.1381 7.02935C28.361 6.95609 28.5636 6.8328 28.7297 6.66925C28.8957 6.5057 29.0208 6.30638 29.095 6.08707L29.3352 5.38208C29.3529 5.32194 29.3902 5.2692 29.4415 5.23206C29.4927 5.19493 29.555 5.17547 29.6186 5.17671ZM25.9078 0.230556L26.1758 1.02453C26.2593 1.26927 26.3995 1.49159 26.5853 1.67397C26.7711 1.85636 26.9974 1.99383 27.2465 2.07555L28.0545 2.33785C28.1208 2.3572 28.1789 2.39708 28.2202 2.45153C28.2616 2.50599 28.284 2.57212 28.284 2.64008C28.2841 2.70804 28.2618 2.77421 28.2205 2.82874C28.1792 2.88326 28.1212 2.92323 28.0549 2.9427L27.2473 3.20637C26.9984 3.28851 26.7722 3.42636 26.5867 3.60906C26.4011 3.79176 26.2613 4.01432 26.1781 4.25919L25.9112 5.05362C25.8915 5.11877 25.8509 5.17593 25.7955 5.21659C25.7401 5.25726 25.6729 5.27925 25.6037 5.27931C25.5346 5.27937 25.4673 5.25749 25.4119 5.21692C25.3564 5.17635 25.3158 5.11926 25.296 5.05414L25.0279 4.26017C24.9444 4.01543 24.8042 3.79311 24.6184 3.61073C24.4326 3.42834 24.2063 3.29087 23.9572 3.20915L23.1492 2.94685C23.083 2.92749 23.0248 2.88762 22.9835 2.83316C22.9421 2.77871 22.9198 2.71258 22.9197 2.64462C22.9197 2.57665 22.9419 2.51049 22.9832 2.45596C23.0245 2.40144 23.0826 2.36147 23.1488 2.342L23.9564 2.07833C24.2054 1.99619 24.4315 1.85833 24.6171 1.67564C24.8026 1.49294 24.9425 1.27038 25.0256 1.0255L25.2926 0.231077C25.3123 0.165929 25.3528 0.10877 25.4082 0.0681059C25.4636 0.0274414 25.5309 0.0054427 25.6 0.00538423C25.6691 0.00532576 25.7364 0.0272106 25.7919 0.0677814C25.8473 0.108352 25.888 0.165442 25.9078 0.230556ZM22.6435 6.42388L22.9919 7.47551C23.1003 7.79523 23.283 8.08567 23.5256 8.32377C23.7681 8.56187 24.0638 8.74105 24.3892 8.84709L25.4594 9.18806C25.5419 9.21659 25.6133 9.26958 25.6639 9.33972C25.7144 9.40985 25.7416 9.49369 25.7417 9.57966C25.7417 9.66564 25.7147 9.74952 25.6642 9.81974C25.6138 9.88996 25.5424 9.94307 25.4599 9.97174L24.3902 10.3145C24.0673 10.419 23.7733 10.5955 23.5313 10.8302C23.2892 11.0649 23.1056 11.3514 22.9949 11.6674L22.6479 12.7196C22.6189 12.8007 22.565 12.871 22.4936 12.9207C22.4223 12.9704 22.337 12.9972 22.2496 12.9973C22.1621 12.9973 22.0768 12.9707 22.0054 12.9211C21.934 12.8715 21.88 12.8014 21.8508 12.7203L21.5023 11.6687C21.3934 11.3484 21.2099 11.0576 20.9664 10.8195C20.7229 10.5813 20.4261 10.4024 20.0997 10.2971L19.0295 9.95614C18.9471 9.92761 18.8756 9.87462 18.8251 9.80448C18.7745 9.73435 18.7473 9.65051 18.7472 9.56454C18.7472 9.47857 18.7742 9.39469 18.8247 9.32446C18.8752 9.25424 18.9465 9.20113 19.029 9.17246L20.0987 8.82968C20.4239 8.7231 20.7194 8.54341 20.9616 8.3049C21.2038 8.06639 21.3861 7.77564 21.494 7.45574L21.841 6.40352C21.87 6.32242 21.9239 6.25217 21.9953 6.20245C22.0666 6.15273 22.1519 6.12599 22.2394 6.12591C22.3268 6.12584 22.4121 6.15243 22.4835 6.20204C22.5549 6.25164 22.609 6.3218 22.6381 6.40285L22.6435 6.42388Z" fill="black"/>
<rect x="21.5" y="16.0789" width="1.6" height="10" fill="black"/>
</svg>
