<svg fill="none" height="23" viewBox="0 0 23 23" width="23" xmlns="http://www.w3.org/2000/svg" xmlns:xlink="http://www.w3.org/1999/xlink"><linearGradient id="a" gradientUnits="userSpaceOnUse" x1="13" x2="11.5" y1="24" y2="4.5"><stop offset="0" stop-color="#fff"/><stop offset="1" stop-color="#fff" stop-opacity="0"/></linearGradient><path clip-rule="evenodd" d="m15.7095 21.6627c-2.01.8325-4.2217 1.0504-6.35549.6259-2.13379-.4244-4.09381-1.4721-5.63218-3.0104-1.53838-1.5384-2.58603-3.4984-3.010467-5.6322-.424435-2.1338-.2066-4.34554.625967-6.35552.83256-2.00999 2.24246-3.72795 4.0514-4.93665 1.80894-1.20869 3.93568-1.853832 6.11127-1.853832.675 0 1.2222.547202 1.2222 1.222222s-.5472 1.22222-1.2222 1.22222c-1.69213 0-3.34626.50178-4.75321 1.44187-1.40695.9401-2.50354 2.27629-3.15109 3.83962-.64755 1.56332-.81698 3.28357-.48686 4.94317s1.14495 3.1841 2.34147 4.3806 2.72097 2.0113 4.38058 2.3415c1.65961.3301 3.37981.1606 4.94321-.4869 1.5633-.6476 2.8995-1.7441 3.8396-3.1511.9401-1.4069 1.4419-3.0611 1.4419-4.7532 0-.675.5472-1.2222 1.2222-1.2222s1.2222.5472 1.2222 1.2222c0 2.1756-.6451 4.3023-1.8538 6.1113-1.2087 1.8089-2.9267 3.2188-4.9367 4.0514z" fill="url(#a)" fill-rule="evenodd"/></svg>